<?xml version="1.0" standalone="no"?>
<!DOCTYPE svg PUBLIC "-//W3C//DTD SVG 20010904//EN"
 "http://www.w3.org/TR/2001/REC-SVG-20010904/DTD/svg10.dtd">
<svg version="1.0" xmlns="http://www.w3.org/2000/svg"
 width="544.000000pt" height="458.000000pt" viewBox="0 0 544.000000 458.000000"
 preserveAspectRatio="xMidYMid meet">

<g transform="translate(0.000000,458.000000) scale(0.100000,-0.100000)"
fill="#000000" stroke="none">
<path d="M2549 4452 c-24 -16 -66 -55 -94 -88 -27 -32 -59 -68 -70 -79 -25
-25 -124 -150 -148 -187 -23 -36 -22 -90 1 -111 11 -10 35 -17 56 -17 40 0 70
24 136 109 53 67 109 125 116 119 3 -4 9 -82 13 -174 6 -166 6 -166 34 -190
40 -34 91 -28 124 15 15 20 16 167 3 340 -16 208 -19 222 -56 259 -39 39 -58
40 -115 4z"/>
<path d="M600 4418 c-44 -30 -53 -65 -34 -147 53 -238 127 -431 189 -494 47
-46 116 -29 130 33 7 33 -9 96 -32 122 -32 36 -112 272 -98 286 4 5 180 -87
223 -117 91 -61 111 -71 144 -71 29 0 41 6 57 29 21 29 26 65 15 95 -5 14 -87
76 -99 76 -3 0 -33 17 -67 38 -128 78 -337 172 -384 172 -6 0 -26 -10 -44 -22z"/>
<path d="M1605 4000 c-27 -5 -78 -14 -112 -20 -157 -26 -343 -115 -449 -213
-60 -56 -163 -203 -179 -256 l-7 -24 -20 31 c-27 43 -88 61 -126 36 -36 -24
-50 -42 -61 -84 -14 -54 -23 -707 -11 -850 5 -69 17 -195 25 -280 9 -85 20
-207 25 -270 5 -63 13 -128 19 -145 18 -54 42 -345 48 -580 7 -283 0 -317 -80
-403 -29 -30 -64 -62 -78 -71 -54 -33 -140 -116 -165 -158 -14 -24 -32 -65
-39 -91 -18 -56 -18 -184 -2 -228 41 -106 160 -157 360 -150 64 2 91 6 98 17
5 8 9 11 9 7 0 -5 10 2 23 14 24 25 32 92 14 116 -5 6 -6 12 -3 12 14 0 -23
30 -49 40 -14 5 -69 10 -121 10 -124 0 -138 7 -129 68 10 66 15 72 113 154
178 148 224 210 253 336 10 47 13 465 4 532 -3 19 -6 53 -6 75 -1 45 -47 404
-54 415 -4 7 -11 78 -20 210 -3 47 -8 99 -10 115 -3 17 -7 66 -10 110 -2 44
-8 121 -12 170 -5 50 -8 137 -8 195 1 212 8 535 12 543 3 5 14 -1 24 -12 38
-40 101 -40 139 2 12 12 46 63 76 114 49 81 116 155 157 173 7 3 32 17 57 32
61 36 187 73 295 88 114 15 282 8 360 -15 33 -9 98 -25 144 -36 165 -36 321
-144 381 -264 14 -27 32 -61 41 -75 44 -68 103 -342 92 -427 -6 -49 -57 -184
-90 -237 -38 -60 -189 -199 -253 -231 -19 -10 -37 -21 -40 -24 -7 -9 -173 -76
-235 -94 -90 -27 -139 -36 -240 -42 -55 -4 -127 -11 -160 -15 -100 -14 -298
-3 -363 20 -88 31 -134 23 -165 -29 -60 -101 20 -180 205 -202 96 -11 288 -10
368 1 30 5 97 11 149 14 261 18 555 135 736 296 103 91 166 162 195 221 55
108 99 233 106 301 8 79 -9 212 -42 330 -13 48 -24 93 -24 102 0 23 -108 226
-153 286 -54 73 -89 105 -167 155 -97 62 -187 102 -260 115 -72 12 -154 35
-215 58 -48 18 -293 26 -370 12z"/>
<path d="M1913 3390 c-29 -17 -33 -24 -31 -60 1 -22 5 -40 10 -40 4 0 8 -6 8
-13 0 -11 48 -47 63 -47 11 0 47 39 55 59 4 11 6 39 4 61 -4 39 -5 40 -62 56
-8 2 -30 -5 -47 -16z"/>
<path d="M1373 3364 c-31 -15 -53 -55 -53 -94 0 -10 16 -32 35 -49 30 -26 38
-29 63 -20 32 11 62 63 62 108 0 29 -36 71 -61 71 -8 0 -28 -8 -46 -16z"/>
<path d="M1623 2878 c-5 -7 -10 -31 -12 -53 -3 -62 -19 -101 -57 -135 -29 -25
-43 -30 -84 -30 -57 0 -73 -16 -40 -42 24 -20 65 -23 104 -8 28 10 106 86 106
104 0 6 4 17 9 24 6 11 18 4 47 -27 33 -35 49 -44 104 -55 69 -14 92 -9 110
24 9 17 6 19 -37 25 -129 16 -163 41 -165 121 0 39 -4 47 -25 55 -33 12 -49
11 -60 -3z"/>
<path d="M3980 2569 c-25 -5 -119 -13 -210 -18 -186 -12 -264 -32 -362 -94
-96 -62 -114 -113 -56 -162 27 -23 39 -26 82 -23 28 3 90 16 137 31 100 30
356 53 553 50 114 -2 121 -4 195 -40 72 -35 193 -126 253 -190 32 -35 94 -149
115 -212 8 -27 17 -105 20 -191 5 -142 5 -147 -20 -197 -34 -65 -92 -109 -166
-122 -122 -23 -305 -72 -356 -97 -129 -61 -221 -195 -271 -392 -56 -228 -13
-402 136 -552 58 -58 74 -68 140 -89 70 -21 89 -23 255 -19 207 5 238 14 333
95 65 56 87 101 113 237 27 136 71 208 139 226 46 12 81 49 82 86 3 61 -2 84
-17 84 -8 0 -15 6 -15 14 0 36 -106 36 -175 0 -107 -56 -190 -184 -220 -339
-21 -110 -34 -137 -82 -167 -36 -22 -47 -23 -183 -22 -192 2 -213 11 -280 129
-31 54 -35 67 -34 135 2 143 77 325 151 367 46 26 144 54 305 87 132 28 191
59 270 143 63 69 96 137 109 230 11 74 6 261 -8 336 -18 99 -92 260 -159 348
-102 133 -345 294 -481 318 -78 14 -238 19 -293 10z"/>
<path d="M2810 2018 c-14 -5 -34 -21 -45 -36 -19 -25 -20 -41 -18 -232 1 -113
7 -241 13 -285 6 -44 14 -210 17 -368 l6 -288 -37 24 c-93 64 -311 37 -406
-49 -58 -53 -85 -123 -84 -219 2 -210 129 -307 403 -306 297 1 327 60 333 651
3 234 -5 458 -22 640 -5 52 -10 166 -10 252 0 126 -3 160 -15 172 -8 8 -15 19
-15 24 0 19 -83 33 -120 20z m-44 -1440 c-8 -102 -15 -108 -112 -108 -77 0
-151 20 -171 47 -15 20 -17 67 -3 92 15 29 37 35 155 41 61 4 116 7 124 8 11
2 13 -13 7 -80z"/>
<path d="M1355 1446 c-29 -29 -33 -60 -40 -364 -3 -128 -8 -247 -12 -265 -10
-52 -27 -79 -97 -147 -80 -78 -109 -150 -110 -270 -1 -124 45 -193 146 -218
62 -16 118 -15 268 4 69 8 175 19 236 24 164 12 213 42 254 156 19 54 21 76
17 180 -4 116 -16 269 -39 504 -6 63 -10 150 -10 193 3 113 -27 161 -105 170
-24 2 -43 2 -43 -2 0 -3 -10 -11 -22 -16 -40 -18 -49 -51 -45 -175 5 -155 24
-418 37 -510 12 -87 15 -254 5 -269 -3 -6 -30 -11 -58 -11 -29 0 -110 -9 -181
-20 -71 -11 -155 -20 -187 -20 -52 0 -59 2 -59 19 0 39 23 77 84 141 113 117
130 178 141 507 7 202 6 215 -16 288 -16 55 -30 83 -51 100 -38 32 -82 32
-113 1z"/>
<path d="M3397 1358 c-61 -62 -35 -153 52 -179 48 -14 80 -7 120 27 43 36 50
84 20 129 -29 42 -57 55 -115 55 -37 0 -50 -5 -77 -32z"/>
<path d="M3382 970 c-11 -11 -24 -35 -28 -54 -11 -62 2 -568 16 -597 23 -50
93 -64 145 -29 17 11 30 23 30 27 0 5 4 14 9 22 5 7 5 116 1 245 -4 127 -7
238 -7 246 0 8 -6 39 -14 68 -11 41 -22 57 -47 72 -41 25 -78 25 -105 0z"/>
</g>
</svg>
